<?xml version="1.0" standalone="no"?><!DOCTYPE svg PUBLIC "-//W3C//DTD SVG 1.1//EN" "http://www.w3.org/Graphics/SVG/1.1/DTD/svg11.dtd"><svg t="1527408910951" class="icon" style="" viewBox="0 0 1024 1024" version="1.1" xmlns="http://www.w3.org/2000/svg" p-id="1922" xmlns:xlink="http://www.w3.org/1999/xlink" width="32" height="32"><defs><style type="text/css"></style></defs><path d="M487.424 487.424v-204.8c0-12.288 8.192-20.48 20.48-20.48s20.48 8.192 20.48 20.48v204.8h204.8c12.288 0 20.48 8.192 20.48 20.48s-8.192 20.48-20.48 20.48h-204.8v204.8c0 12.288-8.192 20.48-20.48 20.48s-20.48-8.192-20.48-20.48v-204.8h-204.8c-12.288 0-20.48-8.192-20.48-20.48s8.192-20.48 20.48-20.48h204.8z m440.32 253.952c-6.144 10.24-18.432 14.336-28.672 8.192-10.24-6.144-14.336-18.432-8.192-28.672 118.784-212.992 40.96-481.28-172.032-598.016s-481.28-40.96-598.016 172.032c-118.784 212.992-40.96 481.28 172.032 598.016 153.6 86.016 339.968 69.632 479.232-32.768 8.192-6.144 22.528-4.096 28.672 4.096 6.144 8.192 4.096 22.528-4.096 28.672-151.552 112.64-356.352 129.024-522.24 36.864-233.472-129.024-317.44-421.888-188.416-653.312 129.024-233.472 421.888-317.44 653.312-188.416 233.472 126.976 317.44 419.84 188.416 653.312z" p-id="1923" fill="#8a8a8a"></path></svg>