<?xml version="1.0" standalone="no"?><!DOCTYPE svg PUBLIC "-//W3C//DTD SVG 1.1//EN" "http://www.w3.org/Graphics/SVG/1.1/DTD/svg11.dtd"><svg class="icon" width="32px" height="32.00px" viewBox="0 0 1024 1024" version="1.1" xmlns="http://www.w3.org/2000/svg"><path fill="#333333" d="M702.131071 124.121212c-93.893818 0-161.150707 84.605414-190.140768 129.353697C482.974384 208.726626 415.747232 124.121212 321.858586 124.121212 187.126303 124.121212 77.550545 245.53503 77.550545 394.757172c0 69.772929 47.327677 169.808162 104.782869 222.157576 79.475071 102.110384 302.898424 285.923556 330.484364 285.923556 28.070788 0 246.702545-180.236929 327.611475-284.696566 58.46497-53.272566 106.020202-153.439677 106.020202-223.384566C946.449455 245.53503 836.858182 124.121212 702.131071 124.121212M888.84299 394.757172c0 55.802828-40.468687 139.081697-88.362667 181.838869-1.313616 1.197253-2.505697 2.504404-3.697778 3.944727C725.586101 673.303273 582.242909 788.363636 512.970343 838.758141 461.474263 801.065374 306.369293 683.62602 226.742949 580.176162c-1.071838-1.408-2.323394-2.721616-3.63701-3.943434-47.706505-42.702869-87.964444-125.763232-87.964444-181.475556 0-117.474263 83.752081-213.060525 186.717091-213.060525 66.368646 0 130.267798 71.83903 164.141253 143.066505 4.490343 9.438384 14.449778 15.317333 25.995636 15.317333 11.544566 0 21.500121-5.878949 26.020202-15.317333 33.842424-71.227475 97.711838-143.066505 164.115394-143.066505C805.090909 181.696646 888.84299 277.282909 888.84299 394.757172"  /></svg>