<?xml version="1.0" standalone="no"?><!DOCTYPE svg PUBLIC "-//W3C//DTD SVG 1.1//EN" "http://www.w3.org/Graphics/SVG/1.1/DTD/svg11.dtd"><svg t="1528973593867" class="icon" style="" viewBox="0 0 1024 1024" version="1.1" xmlns="http://www.w3.org/2000/svg" p-id="2041" xmlns:xlink="http://www.w3.org/1999/xlink" width="16" height="16"><defs><style type="text/css"></style></defs><path d="M713.04314 394.841279l-33.486639 0 0-67.070491c0-93.874947-73.742441-167.623528-167.620458-167.623528-93.777733 0-167.572362 73.748581-167.572362 167.623528l0 67.070491-33.533711 0c-36.82466 0-67.019326 30.147594-67.019326 66.965091l0 335.251148c0 36.817497 30.194666 66.965091 67.019326 66.965091l402.212146 0c36.922897 0 67.069468-30.147594 67.069468-66.965091L780.111584 461.806369C780.113631 424.989896 749.966037 394.841279 713.04314 394.841279M511.937067 696.500388c-36.820567 0-67.019326-30.194666-67.019326-67.067421 0-36.875825 30.198759-67.070491 67.019326-67.070491 36.920851 0 67.070491 30.194666 67.070491 67.070491C579.007558 666.306746 548.857917 696.500388 511.937067 696.500388M615.877243 394.841279l-207.830211 0 0-67.070491c0-57.006285 46.933892-103.892081 103.889011-103.892081 57.053357 0 103.9412 46.885797 103.9412 103.892081L615.877243 394.841279z" p-id="2042" fill="#2c2c2c"></path></svg>