<?xml version="1.0" standalone="no"?><!DOCTYPE svg PUBLIC "-//W3C//DTD SVG 1.1//EN" "http://www.w3.org/Graphics/SVG/1.1/DTD/svg11.dtd"><svg t="1527505874687" class="icon" style="" viewBox="0 0 1024 1024" version="1.1" xmlns="http://www.w3.org/2000/svg" p-id="2379" xmlns:xlink="http://www.w3.org/1999/xlink" width="16" height="16"><defs><style type="text/css"></style></defs><path d="M908.40989 138.2589 115.588063 138.2589c-27.744901 0-50.29857 22.560832-50.29857 50.291406l0 646.899386c0 27.730575 22.553669 50.291406 50.29857 50.291406l792.837176 0c27.729551 0 50.284243-22.560832 50.284243-50.291406L958.709483 188.550307C958.709483 160.819732 936.140465 138.2589 908.40989 138.2589L908.40989 138.2589zM115.588063 179.680289l792.837176 0c4.88424 0 8.870018 3.977591 8.870018 8.870018l0 528.867156-169.377642-171.230849c-9.453303-9.553587-22.045085-14.84715-35.482119-14.919804l-0.276293 0c-13.334703 0-25.88453 5.148253-35.322483 14.482853l-38.315654 37.640272-0.347924-0.348947-44.467771 43.99398-44.278459-44.772716-0.102331 0.095167L370.730021 401.231197c-9.452279-9.553587-22.044062-14.854313-35.481096-14.925944l-0.276293 0c-13.334703 0-25.883507 5.154393-35.364439 14.534018L106.718045 591.650061 106.718045 188.550307C106.718045 183.656857 110.68745 179.680289 115.588063 179.680289L115.588063 179.680289zM908.40989 844.320735 115.588063 844.320735c-4.900613 0-8.870018-3.977591-8.870018-8.871041L106.718045 649.90279l222.016513-219.61686c2.238994-2.225691 4.857635-2.567475 6.252401-2.567475l0.029676 0c1.366114 0.008186 4.013407 0.363274 6.238075 2.610454l178.712241 181.229574 0.088004-0.095167 53.905724 54.501288c5.190209 5.249561 12.111852 8.150634 19.4991 8.194636l0.146333 0c7.328919 0 14.20656-2.829442 19.426445-7.983835l35.190477-34.819017 0.291642 0.283456 57.393151-56.391335c2.26867-2.231831 4.872984-2.566452 6.253424-2.566452 1.119497-0.035816 4.041036 0.327458 6.309706 2.631944l197.747783 199.906959 1.077541-1.054005 0 61.284785C917.295258 840.343143 913.310503 844.320735 908.40989 844.320735L908.40989 844.320735zM908.40989 844.320735" p-id="2380" fill="#8a8a8a"></path><path d="M636.733351 343.371418c0 18.205641 7.504928 36.288484 20.37198 49.157583 12.869099 12.868075 30.959106 20.363793 49.164746 20.363793 18.191314 0 36.281321-7.495718 49.15042-20.363793 12.869099-12.869099 20.358677-30.951943 20.358677-49.157583 0-18.198477-7.488555-36.287461-20.358677-49.15656s-30.959106-20.364817-49.15042-20.364817c-18.205641 0-36.295648 7.495718-49.164746 20.364817C644.238278 307.083957 636.733351 325.172941 636.733351 343.371418L636.733351 343.371418zM636.733351 343.371418" p-id="2381" fill="#8a8a8a"></path></svg>