<?xml version="1.0" standalone="no"?><!DOCTYPE svg PUBLIC "-//W3C//DTD SVG 1.1//EN" "http://www.w3.org/Graphics/SVG/1.1/DTD/svg11.dtd"><svg t="1549512213604" class="icon" style="" viewBox="0 0 1159 1024" version="1.1" xmlns="http://www.w3.org/2000/svg" p-id="3023" xmlns:xlink="http://www.w3.org/1999/xlink" width="18.109375" height="16"><defs><style type="text/css"></style></defs><path d="M1088.731 85.857c7.486 15.186-0.014 34.184-16.746 42.433L247.459 534.728c-16.735 8.25-36.37 2.625-43.855-12.56-7.485-15.184 0.013-34.183 16.748-42.432l824.525-406.438c16.734-8.248 36.368-2.626 43.854 12.56z" p-id="3024"></path><path d="M1067.131 69.833c16.507 3.765 27.377 17.834 24.278 31.421L938.702 770.787c-3.1 13.587-18.995 21.552-35.5 17.786-16.506-3.764-27.374-17.831-24.274-31.42l152.705-669.531c3.098-13.589 18.993-21.553 35.498-17.789z" p-id="3025"></path><path d="M1059.32 99.368c12.483 11.436 14.63 29.416 4.79 40.156l-484.802 529.24c-9.84 10.742-27.938 10.176-40.422-1.257-12.483-11.437-14.626-29.413-4.786-40.156L1018.9 98.111c9.839-10.741 27.937-10.177 40.42 1.257zM502.153 622.73c-6.02 16.604-24.36 25.185-40.965 19.166l-240.527-87.19c-16.606-6.02-25.187-24.36-19.168-40.965 6.02-16.605 24.36-25.186 40.965-19.167l240.526 87.192c16.606 6.018 25.187 24.36 19.169 40.964zM937.345 775.375c-6.019 16.605-24.36 25.186-40.966 19.167L655.851 707.35c-16.603-6.019-25.185-24.36-19.165-40.964s24.362-25.185 40.964-19.166l240.528 87.19c16.604 6.02 25.184 24.36 19.167 40.965z" p-id="3026"></path><path d="M585.576 911.117c0 17.662-14.318 31.98-31.98 31.98-17.663 0-31.981-14.318-31.981-31.98V655.275c0-17.662 14.318-31.98 31.98-31.98 17.663 0 31.98 14.318 31.98 31.98v255.842z" p-id="3027"></path></svg>