<?xml version="1.0" standalone="no"?><!DOCTYPE svg PUBLIC "-//W3C//DTD SVG 1.1//EN" "http://www.w3.org/Graphics/SVG/1.1/DTD/svg11.dtd"><svg class="icon" width="64px" height="64.00px" viewBox="0 0 1024 1024" version="1.1" xmlns="http://www.w3.org/2000/svg"><path fill="#333333" d="M672 256a96 96 0 1 0 0-192 96 96 0 0 0 0 192z m0 64a160 160 0 1 1 0-320 160 160 0 0 1 0 320zM800 960a96 96 0 1 0 0-192 96 96 0 0 0 0 192z m0 64a160 160 0 1 1 0-320 160 160 0 0 1 0 320zM160 640a96 96 0 1 0 0-192 96 96 0 0 0 0 192z m0 64a160 160 0 1 1 0-320 160 160 0 0 1 0 320z"  /><path fill="#333333" d="M245.056 491.904l-32.96-54.848 374.848-224.96 32.96 54.848-374.848 224.96z m31.04 159.04l32.96-54.848 374.848 224.96-32.96 54.848-374.848-224.96z"  /></svg>