<?xml version="1.0" standalone="no"?><!DOCTYPE svg PUBLIC "-//W3C//DTD SVG 1.1//EN" "http://www.w3.org/Graphics/SVG/1.1/DTD/svg11.dtd"><svg t="1527475448982" class="icon" style="" viewBox="0 0 1024 1024" version="1.1" xmlns="http://www.w3.org/2000/svg" p-id="1916" xmlns:xlink="http://www.w3.org/1999/xlink" width="16" height="16"><defs><style type="text/css"></style></defs><path d="M512 896c-211.2 0-384-172.8-384-384s172.8-384 384-384 384 172.8 384 384S723.2 896 512 896zM512 185.6C332.8 185.6 185.6 332.8 185.6 512c0 179.2 147.2 326.4 326.4 326.4 179.2 0 326.4-147.2 326.4-326.4C838.4 332.8 691.2 185.6 512 185.6z" p-id="1917" fill="#bfbfbf"></path><path d="M396.8 480C396.8 499.2 377.6 512 364.8 512l0 0C345.6 512 332.8 499.2 332.8 480L332.8 422.4c0-19.2 12.8-32 32-32l0 0c19.2 0 32 12.8 32 32L396.8 480z" p-id="1918" fill="#bfbfbf"></path><path d="M691.2 480c0 19.2-12.8 32-32 32l0 0c-19.2 0-32-12.8-32-32L627.2 422.4c0-19.2 12.8-32 32-32l0 0c19.2 0 32 12.8 32 32L691.2 480z" p-id="1919" fill="#bfbfbf"></path><path d="M640 576c6.4 0 12.8 0 19.2 6.4 12.8 12.8 12.8 32 0 44.8-38.4 44.8-96 64-153.6 64-57.6 0-115.2-25.6-153.6-64-12.8-12.8-12.8-32 0-44.8C371.2 576 390.4 576 403.2 588.8c57.6 64 160 57.6 217.6 0C627.2 582.4 633.6 576 640 576z" p-id="1920" fill="#bfbfbf"></path></svg>