<?xml version="1.0" standalone="no"?><!DOCTYPE svg PUBLIC "-//W3C//DTD SVG 1.1//EN" "http://www.w3.org/Graphics/SVG/1.1/DTD/svg11.dtd"><svg class="icon" width="200px" height="200.00px" viewBox="0 0 1024 1024" version="1.1" xmlns="http://www.w3.org/2000/svg"><path fill="#333333" d="M995.574089 208.102618c-35.57831 15.777335-73.843822 26.445302-113.983008 31.251771 40.954761-24.573675 72.423473-63.443961 87.260389-109.776196-38.353516 22.727631-80.821747 39.263236-126.010949 48.149627-36.20969-38.570457-87.772043-62.659085-144.837736-62.659085-109.600187 0-198.433398 88.832188-198.433398 198.428282 0 15.565511 1.750877 30.712489 5.136997 45.220924-164.906817-8.28264-311.137273-87.292112-409.011394-207.348442-17.076934 29.318746-26.868951 63.383586-26.868951 99.772354 0 68.853158 35.028794 129.580241 88.288812 165.185156-32.523741-1.028423-63.111386-9.943466-89.89438-24.816199-0.026606 0.815575-0.026606 1.664919-0.026606 2.509147 0 96.14678 68.399833 176.336124 159.166069 194.564277-16.653285 4.533246-34.184567 6.949272-52.29197 6.949272-12.785188 0-25.204032-1.240247-37.32407-3.564175 25.236777 78.824253 98.531084 136.194892 185.371918 137.799436-67.917856 53.223179-153.484673 84.929298-246.459205 84.929298-16.018835 0-31.795147-0.935302-47.333028-2.780323 87.804788 56.31254 192.115506 89.165786 304.189024 89.165786 365.007181 0 564.584636-302.375725 564.584636-564.613288 0-8.615215-0.180102-17.165961-0.573051-25.662473 38.779212-27.990494 72.41938-62.927191 99.017154-102.70515L995.574089 208.102618zM995.574089 208.102618" /></svg>