<?xml version="1.0" standalone="no"?><!DOCTYPE svg PUBLIC "-//W3C//DTD SVG 1.1//EN" "http://www.w3.org/Graphics/SVG/1.1/DTD/svg11.dtd"><svg class="icon" width="16px" height="16.00px" viewBox="0 0 1024 1024" version="1.1" xmlns="http://www.w3.org/2000/svg"><path fill="#8a8a8a" d="M521.402182 841.250909c-4.608 0-9.274182-1.361455-13.346909-4.224-10.519273-7.377455-13.067636-21.899636-5.678545-32.407273 60.427636-86.097455 92.357818-187.287273 92.357818-292.608 0-105.320727-31.930182-206.498909-92.357818-292.608-7.377455-10.519273-4.840727-25.029818 5.678545-32.418909s25.053091-4.840727 32.418909 5.678545c65.954909 93.975273 100.805818 204.404364 100.805818 319.336727 0 114.944-34.850909 225.373091-100.805818 319.336727C535.947636 837.794909 528.733091 841.250909 521.402182 841.250909zM657.629091 977.454545c-4.980364 0-9.972364-1.582545-14.219636-4.852364-10.170182-7.866182-12.043636-22.481455-4.189091-32.651636C734.778182 816.302545 785.268364 668.334545 785.268364 512c0-156.311273-50.501818-304.290909-146.059636-427.962182-7.854545-10.170182-5.981091-24.785455 4.189091-32.64 10.158545-7.842909 24.773818-6.004364 32.651636 4.189091C777.949091 187.473455 831.813818 345.297455 831.813818 512c0 166.725818-53.864727 324.549818-155.764364 456.413091C671.464727 974.336 664.576 977.454545 657.629091 977.454545zM272.616727 592.430545c-5.957818 0-11.915636-2.269091-16.453818-6.818909l-57.157818-57.157818c-9.088-9.088-9.088-23.819636 0-32.907636l57.076364-57.088c9.076364-9.088 23.819636-9.088 32.907636 0 9.088 9.088 9.088 23.819636 0 32.907636L248.366545 512l40.704 40.704c9.088 9.088 9.088 23.819636 0 32.907636C284.532364 590.161455 278.562909 592.430545 272.616727 592.430545zM383.336727 703.208727c-3.874909 0-7.784727-0.965818-11.392-3.002182-11.194182-6.306909-15.162182-20.491636-8.855273-31.697455 26.891636-47.755636 41.111273-101.876364 41.111273-156.509091 0-54.621091-14.219636-108.741818-41.111273-156.497455-6.306909-11.194182-2.338909-25.390545 8.855273-31.697455 11.194182-6.306909 25.402182-2.338909 31.697455 8.855273C434.455273 387.374545 450.734545 449.396364 450.734545 512c0 62.626909-16.279273 124.637091-47.092364 179.351273C399.371636 698.938182 391.470545 703.208727 383.336727 703.208727z" /></svg>