<?xml version="1.0" standalone="no"?><!DOCTYPE svg PUBLIC "-//W3C//DTD SVG 1.1//EN" "http://www.w3.org/Graphics/SVG/1.1/DTD/svg11.dtd"><svg class="icon" width="16px" height="16.00px" viewBox="0 0 1024 1024" version="1.1" xmlns="http://www.w3.org/2000/svg"><path fill="#8a8a8a" d="M819.2 686.08c-58.88-66.56-84.48-133.12-79.36-197.12 7.68-89.6 76.8-148.48 76.8-148.48 10.24-7.68 12.8-25.6 2.56-35.84-7.68-10.24-25.6-12.8-35.84-2.56-2.56 2.56-87.04 71.68-94.72 181.76-7.68 79.36 25.6 158.72 92.16 235.52 5.12 5.12 12.8 7.68 20.48 7.68 5.12 0 12.8-2.56 17.92-7.68C826.88 711.68 829.44 696.32 819.2 686.08zM504.32 468.48c12.8-168.96 143.36-276.48 145.92-276.48 10.24-7.68 12.8-25.6 2.56-35.84-7.68-10.24-25.6-12.8-35.84-2.56-5.12 5.12-148.48 120.32-163.84 312.32-10.24 135.68 43.52 271.36 161.28 404.48 5.12 5.12 12.8 7.68 20.48 7.68 5.12 0 12.8-2.56 17.92-7.68 10.24-10.24 12.8-25.6 2.56-35.84C545.28 711.68 494.08 588.8 504.32 468.48zM250.88 450.56C271.36 202.24 460.8 48.64 463.36 46.08c10.24-7.68 12.8-25.6 2.56-35.84-7.68-10.24-25.6-12.8-35.84-2.56-7.68 7.68-207.36 168.96-230.4 437.76-15.36 189.44 61.44 381.44 227.84 570.88 5.12 5.12 12.8 7.68 20.48 7.68 5.12 0 12.8-2.56 17.92-7.68 10.24-10.24 12.8-25.6 2.56-35.84C309.76 803.84 235.52 624.64 250.88 450.56z" /></svg>