<?xml version="1.0" standalone="no"?><!DOCTYPE svg PUBLIC "-//W3C//DTD SVG 1.1//EN" "http://www.w3.org/Graphics/SVG/1.1/DTD/svg11.dtd"><svg t="1525926628842" class="icon" style="" viewBox="0 0 1024 1024" version="1.1" xmlns="http://www.w3.org/2000/svg" p-id="6303" xmlns:xlink="http://www.w3.org/1999/xlink" width="16" height="16"><defs><style type="text/css"></style></defs><path d="M868.173913 718.708075c-44.521739 0-89.043478 19.080745-114.484472 57.242236L302.111801 546.981366c0-12.720497 6.360248-25.440994 6.360248-38.161491 0-12.720497 0-25.440994-6.360248-38.161491l451.57764-228.968944c25.440994 38.161491 69.962733 57.242236 114.484472 57.242236 82.68323 0 152.645963-69.962733 152.645963-152.645963C1020.819876 69.962733 950.857143 0 868.173913 0s-152.645963 69.962733-152.645963 152.645963c0 12.720497 0 25.440994 6.360248 38.161491L270.310559 413.416149C244.869565 381.614907 200.347826 356.173913 155.826087 356.173913 73.142857 356.173913 3.180124 426.136646 3.180124 508.819876s69.962733 152.645963 152.645963 152.645963c44.521739 0 89.043478-19.080745 114.484472-57.242236l451.57764 228.968944c0 12.720497-6.360248 25.440994-6.360248 38.161491 0 82.68323 69.962733 152.645963 152.645963 152.645963s152.645963-69.962733 152.645963-152.645963C1020.819876 782.310559 950.857143 718.708075 868.173913 718.708075zM868.173913 63.602484C919.055901 63.602484 957.217391 101.763975 957.217391 152.645963s-38.161491 89.043478-89.043478 89.043478c-31.801242 0-63.602484-19.080745-76.322981-50.881988 0 0 0 0 0 0 0 0 0 0 0 0-6.360248-12.720497-6.360248-25.440994-6.360248-38.161491C785.490683 101.763975 823.652174 63.602484 868.173913 63.602484zM155.826087 597.863354C104.944099 597.863354 66.782609 559.701863 66.782609 508.819876c0-50.881988 38.161491-89.043478 89.043478-89.043478 31.801242 0 63.602484 19.080745 76.322981 50.881988 0 0 0 0 0 0 0 0 0 0 0 0C238.509317 483.378882 244.869565 496.099379 244.869565 508.819876c0 12.720497 0 25.440994-6.360248 38.161491 0 0 0 0 0 0 0 0 0 0 0 0C219.428571 578.782609 187.627329 597.863354 155.826087 597.863354zM868.173913 954.037267c-50.881988 0-89.043478-38.161491-89.043478-89.043478 0-12.720497 0-25.440994 6.360248-38.161491 12.720497-31.801242 44.521739-50.881988 76.322981-50.881988 50.881988 0 89.043478 38.161491 89.043478 89.043478C957.217391 915.875776 919.055901 954.037267 868.173913 954.037267z" p-id="6304"></path></svg>